<?xml version="1.0" encoding="utf-8"?>
<!-- Generator: Adobe Illustrator 16.0.0, SVG Export Plug-In . SVG Version: 6.00 Build 0)  -->
<!DOCTYPE svg PUBLIC "-//W3C//DTD SVG 1.1//EN" "http://www.w3.org/Graphics/SVG/1.1/DTD/svg11.dtd">
<svg version="1.1" id="Layer_1" xmlns="http://www.w3.org/2000/svg" xmlns:xlink="http://www.w3.org/1999/xlink" x="0px" y="0px"
	 width="170px" height="170px" viewBox="0 0 170 170" enable-background="new 0 0 170 170" xml:space="preserve">
<g>
	<defs>
		<rect id="SVGID_1_" y="14" width="170" height="142.197"/>
	</defs>
	<clipPath id="SVGID_2_">
		<use xlink:href="#SVGID_1_"  overflow="visible"/>
	</clipPath>
	<path clip-path="url(#SVGID_2_)" fill="#323232" d="M147.581,68.67l-2.092-6.658l-2.486-6.837l24.557-8.845
		C167.636,45.905,165.369,58.412,147.581,68.67"/>
	<path clip-path="url(#SVGID_2_)" fill="#424242" stroke="#FFFFFF" stroke-width="0.0051" stroke-miterlimit="10" d="M147.581,68.67
		l-2.092-6.658l-2.486-6.837l24.557-8.845C167.636,45.905,165.369,58.412,147.581,68.67z"/>
	<path clip-path="url(#SVGID_2_)" fill="#424242" d="M114.708,27.045c0,0-14.918-10.879-36.804-11.988
		c-21.292-1.078-49.321,7.33-66.517,38.72c0,0-5.14,8.894-7.215,22.314c-3.264,21.096-0.289,53.289,34.073,76.103
		c0,0-33.458-36.006-16.015-82.888c0,0,10.527-27.936,39.247-35.754c0,0,24.811-6.316,45.864,8.42l7.366-14.134"/>
	<path clip-path="url(#SVGID_2_)" fill="#424242" d="M114.708,150.125l4.792-3.852c25.805-19.177,29.216-47.5,26.797-67.142
		c-1.683-13.662-6.747-22.89-6.747-22.89L95.31,69.307l-6.69,16.835l40.6-12.179C129.219,73.963,146.585,121.744,114.708,150.125"/>
</g>
</svg>
