<?xml version="1.0" encoding="utf-8"?>
<!-- Generator: Adobe Illustrator 16.0.0, SVG Export Plug-In . SVG Version: 6.00 Build 0)  -->
<!DOCTYPE svg PUBLIC "-//W3C//DTD SVG 1.1//EN" "http://www.w3.org/Graphics/SVG/1.1/DTD/svg11.dtd">
<svg version="1.1" id="Layer_1" xmlns="http://www.w3.org/2000/svg" xmlns:xlink="http://www.w3.org/1999/xlink" x="0px" y="0px"
	 width="70px" height="58px" viewBox="0 0 70 58" enable-background="new 0 0 70 58" xml:space="preserve">
<g>
	<defs>
		<rect id="SVGID_1_" width="68.5" height="57.297"/>
	</defs>
	<clipPath id="SVGID_2_">
		<use xlink:href="#SVGID_1_"  overflow="visible"/>
	</clipPath>
	<path clip-path="url(#SVGID_2_)" fill="#323232" d="M59.467,22.029l-0.844-2.683l-1.001-2.755l9.895-3.564
		C67.547,12.855,66.634,17.896,59.467,22.029"/>
	<path clip-path="url(#SVGID_2_)" fill="#FFFFFF" stroke="#FFFFFF" stroke-width="0.002" stroke-miterlimit="10" d="M59.467,22.029
		l-0.844-2.683l-1.001-2.755l9.895-3.564C67.547,12.855,66.634,17.896,59.467,22.029z"/>
	<path clip-path="url(#SVGID_2_)" fill="#FFFFFF" d="M46.221,5.256c0,0-6.012-4.384-14.83-4.831
		c-8.58-0.435-19.874,2.954-26.803,15.602c0,0-2.071,3.583-2.907,8.991c-1.315,8.5-0.116,21.472,13.729,30.665
		c0,0-13.482-14.508-6.453-33.398c0,0,4.242-11.256,15.814-14.407c0,0,9.997-2.545,18.48,3.393l2.969-5.695"/>
	<path clip-path="url(#SVGID_2_)" fill="#FFFFFF" d="M46.221,54.851l1.931-1.553c10.397-7.727,11.772-19.14,10.797-27.054
		c-0.678-5.505-2.718-9.223-2.718-9.223l-17.826,5.264l-2.696,6.784l16.359-4.907C52.067,24.162,59.065,43.414,46.221,54.851"/>
</g>
</svg>
